<?xml version="1.0" standalone="no"?>
<!DOCTYPE svg PUBLIC "-//W3C//DTD SVG 20010904//EN"
 "http://www.w3.org/TR/2001/REC-SVG-20010904/DTD/svg10.dtd">
<svg version="1.0" xmlns="http://www.w3.org/2000/svg"
 width="512.000000pt" height="512.000000pt" viewBox="0 0 512.000000 512.000000"
 preserveAspectRatio="xMidYMid meet">

<g transform="translate(0.000000,512.000000) scale(0.100000,-0.100000)"
fill="#000000" stroke="none">
<path d="M2240 4974 c-704 -96 -1318 -481 -1711 -1073 -289 -435 -426 -943
-398 -1480 57 -1080 833 -1997 1894 -2235 335 -76 735 -76 1070 -1 348 79 723
260 1002 486 123 99 302 285 399 415 328 436 494 931 494 1474 0 454 -119 882
-352 1269 -126 208 -354 470 -538 617 -364 292 -777 469 -1233 529 -148 19
-481 18 -627 -1z m1293 -1363 c40 -16 99 -73 118 -116 23 -49 24 -114 4 -162
-10 -23 -78 -98 -179 -197 -402 -396 -653 -766 -906 -1334 -90 -201 -103 -215
-256 -266 -124 -41 -186 -45 -242 -17 -58 30 -89 70 -126 163 -87 222 -200
375 -382 520 -91 72 -118 123 -112 208 7 101 71 169 208 221 68 26 204 36 280
20 72 -15 152 -53 218 -103 30 -22 55 -38 56 -36 2 1 25 39 51 83 266 444 615
772 1040 977 104 50 170 61 228 39z"/>
</g>
</svg>
