<svg xmlns="http://www.w3.org/2000/svg" width="48" height="48" id="office"><path fill="#c2e4f8" fill-rule="evenodd" d="M14.87 40.034 7.966 33.13 5.5 42.5z"></path><path fill="#c2e4f8" d="m37.33 17.573 3.453-3.452a2.436 2.436 0 0 0 0-3.452L37.33 7.217a2.436 2.436 0 0 0-3.452 0l-3.452 3.452z"></path><path fill="#c2e4f8" d="M14.87 40.034 37.554 17.35l-6.904-6.904L7.966 33.13z"></path><path fill="#fff" fill-rule="evenodd" d="M6.323 39.377 5.5 42.5l3.123-.823-2.3-2.3z"></path><path fill="#fff" fill-rule="evenodd" d="m7.965 33.13-1.73 6.578 1.194.553 1.597-6.07z"></path><path fill="#fff" d="M30.65 10.446 7.964 33.13l1.061 1.061L31.71 11.507l-1.06-1.06z"></path><path fill="#fff" d="m31.636 9.46 6.904 6.904-1.973 1.972-6.903-6.904z"></path><path fill="#fff" d="M37.331 7.217a2.436 2.436 0 0 0-3.453 0l-3.45 3.452 1.06 1.06 3.451-3.45a2.436 2.436 0 0 1 3.453 0L37.33 7.216z"></path><path style="line-height:normal;text-indent:0;text-align:start;text-decoration-line:none;text-decoration-style:solid;text-decoration-color:#000;text-transform:none;block-progression:tb;isolation:auto;mix-blend-mode:normal" fill="#249fe6" fill-rule="evenodd" d="M35.605 1010.361a.5.5 0 0 0-.353.147c-.62.082-1.25.24-1.727.717l-2.242 2.242-1.209 1.21-.763.763-21.7 21.699a.5.5 0 0 0-.13.226l-2.465 9.37a.5.5 0 0 0 .611.61l9.37-2.464a.5.5 0 0 0 .226-.131l21.699-21.7.762-.763.12-.121.102-.098a.5.5 0 0 0 .002 0l.985-.986 2.244-2.243a2.946 2.946 0 0 0 0-4.16l-3.451-3.45a2.94 2.94 0 0 0-2.08-.864zm0 1c.497 0 .99.188 1.374.57l3.45 3.452c.767.766.767 1.98 0 2.746l-2.243 2.242-.983.986-.101.098a.5.5 0 0 0-.002 0l-.123.123-.762.762-21.604 21.604-8.408 2.213 2.211-8.41 21.604-21.602.763-.762 1.21-1.21 2.241-2.243c.383-.383.877-.57 1.373-.57z" color="#000" font-family="sans-serif" font-weight="400" overflow="visible" transform="translate(0 -1004.362)"></path><path style="line-height:normal;text-indent:0;text-align:start;text-decoration-line:none;text-decoration-style:solid;text-decoration-color:#000;text-transform:none;block-progression:tb;isolation:auto;mix-blend-mode:normal" fill="#249fe6" fill-rule="evenodd" d="M7.957 1036.992a.5.5 0 0 0-.477.373l-1.642 6.246a.5.5 0 0 0 .13.48l2.302 2.302a.5.5 0 0 0 .48.13l6.246-1.642a.5.5 0 0 0 .227-.838l-6.905-6.904a.5.5 0 0 0-.361-.147zm.27 1.469 5.673 5.674-5.127 1.347-1.894-1.894 1.348-5.127z" color="#000" font-family="sans-serif" font-weight="400" overflow="visible" transform="translate(0 -1004.362)"></path><path fill="#fff" d="m31.636 9.46-1.973 1.973 1.061 1.06 1.972-1.972-1.06-1.06z"></path><path style="line-height:normal;text-indent:0;text-align:start;text-decoration-line:none;text-decoration-style:solid;text-decoration-color:#000;text-transform:none;block-progression:tb;isolation:auto;mix-blend-mode:normal" fill="#249fe6" d="M31.99 1013.468a.5.5 0 0 0-.707 0l-1.973 1.972a.5.5 0 0 0 0 .707l6.904 6.904a.5.5 0 0 0 .707 0l1.973-1.972a.5.5 0 0 0 0-.707l-6.904-6.904zm-.354 1.06 6.197 6.197-1.265 1.265-6.197-6.197 1.265-1.265z" color="#000" font-family="sans-serif" font-weight="400" overflow="visible" transform="translate(0 -1004.362)"></path></svg>